HIERARCHY
ROOT Hips
{
  OFFSET 5.84602e-005 68.8428 3.50346
  CHANNELS 6 Xposition Yposition Zposition Zrotation Xrotation Yrotation
  JOINT Spine
  {
    OFFSET 0 8.597 -4.6522
    CHANNELS 3 Zrotation Xrotation Yrotation
    JOINT Spine1
    {
      OFFSET 0 7.8454 0.4098
      CHANNELS 3 Zrotation Xrotation Yrotation
      JOINT Spine2
      {
        OFFSET 0 9.7078 -2.1609
        CHANNELS 3 Zrotation Xrotation Yrotation
        JOINT Neck
        {
          OFFSET 0 21.8761 -0.4549
          CHANNELS 3 Zrotation Xrotation Yrotation
          JOINT Head
          {
            OFFSET 0 12.3537 3.3602
            CHANNELS 3 Zrotation Xrotation Yrotation
            End Site
            {
              OFFSET 0.0001 18.9506 0.5657
            }
          }
        }
        JOINT LeftShoulder
        {
          OFFSET 2.2086 21.1115 7.2329
          CHANNELS 3 Zrotation Xrotation Yrotation
          JOINT LeftArm
          {
            OFFSET 13.1193 3.0282 -4.8998
            CHANNELS 3 Zrotation Xrotation Yrotation
            JOINT LeftForeArm
            {
              OFFSET 27.4081 -0.0973053 -0.2375
              CHANNELS 3 Zrotation Xrotation Yrotation
              JOINT LeftHand
              {
                OFFSET 22.8641 0.0662994 -0.1369
                CHANNELS 3 Zrotation Xrotation Yrotation
                JOINT LeftHandIndex1
                {
                  OFFSET 8.8614 0.775009 2.4612
                  CHANNELS 3 Zrotation Xrotation Yrotation
                  JOINT LeftHandIndex2
                  {
                    OFFSET 3.3146 -0.808304 0.5841
                    CHANNELS 3 Zrotation Xrotation Yrotation
                    JOINT LeftHandIndex3
                    {
                      OFFSET 2.2628 -0.552002 0.3989
                      CHANNELS 3 Zrotation Xrotation Yrotation
                      End Site
                      {
                        OFFSET 1.6102 -0.4807 0.2612
                      }
                    }
                  }
                }
                JOINT LeftHandMiddle1
                {
                  OFFSET 8.9937 0.895004 0.2143
                  CHANNELS 3 Zrotation Xrotation Yrotation
                  JOINT LeftHandMiddle2
                  {
                    OFFSET 4.0984 0.0113983 -0.0242
                    CHANNELS 3 Zrotation Xrotation Yrotation
                    JOINT LeftHandMiddle3
                    {
                      OFFSET 2.2716 0.00689697 -0.0138001
                      CHANNELS 3 Zrotation Xrotation Yrotation
                      End Site
                      {
                        OFFSET 2.0404 -0.1441 0.0027
                      }
                    }
                  }
                }
                JOINT LeftHandRing1
                {
                  OFFSET 8.5234 0.597198 -2.0164
                  CHANNELS 3 Zrotation Xrotation Yrotation
                  JOINT LeftHandRing2
                  {
                    OFFSET 3.7188 -0.188293 -0.2328
                    CHANNELS 3 Zrotation Xrotation Yrotation
                    JOINT LeftHandRing3
                    {
                      OFFSET 2.1191 -0.106598 -0.1332
                      CHANNELS 3 Zrotation Xrotation Yrotation
                      End Site
                      {
                        OFFSET 1.8737 -0.2304 -0.0886
                      }
                    }
                  }
                }
                JOINT LeftHandPinky1
                {
                  OFFSET 7.9094 -0.601089 -3.4825
                  CHANNELS 3 Zrotation Xrotation Yrotation
                  JOINT LeftHandPinky2
                  {
                    OFFSET 2.2874 -0.477005 -0.6314
                    CHANNELS 3 Zrotation Xrotation Yrotation
                    JOINT LeftHandPinky3
                    {
                      OFFSET 1.6774 -0.349396 -0.4633
                      CHANNELS 3 Zrotation Xrotation Yrotation
                      End Site
                      {
                        OFFSET 1.4888 -0.4091 -0.3416
                      }
                    }
                  }
                }
                JOINT LeftHandThumb1
                {
                  OFFSET 1.833 -1.3875 1.3896
                  CHANNELS 3 Zrotation Xrotation Yrotation
                  JOINT LeftHandThumb2
                  {
                    OFFSET 3.4129 -1.121 2.5732
                    CHANNELS 3 Zrotation Xrotation Yrotation
                    JOINT LeftHandThumb3
                    {
                      OFFSET 2.2474 -0.804199 1.6192
                      CHANNELS 3 Zrotation Xrotation Yrotation
                      End Site
                      {
                        OFFSET 1.6527 -0.5689 1.1317
                      }
                    }
                  }
                }
              }
            }
          }
        }
        JOINT RightShoulder
        {
          OFFSET -2.2086 21.1115 7.2329
          CHANNELS 3 Zrotation Xrotation Yrotation
          JOINT RightArm
          {
            OFFSET -13.1216 3.0287 -4.9007
            CHANNELS 3 Zrotation Xrotation Yrotation
            JOINT RightForeArm
            {
              OFFSET -27.4081 -0.0973053 -0.2375
              CHANNELS 3 Zrotation Xrotation Yrotation
              JOINT RightHand
              {
                OFFSET -22.8641 0.0664063 -0.1369
                CHANNELS 3 Zrotation Xrotation Yrotation
                JOINT RightHandIndex1
                {
                  OFFSET -8.8614 0.774994 2.4612
                  CHANNELS 3 Zrotation Xrotation Yrotation
                  JOINT RightHandIndex2
                  {
                    OFFSET -3.3146 -0.808304 0.5841
                    CHANNELS 3 Zrotation Xrotation Yrotation
                    JOINT RightHandIndex3
                    {
                      OFFSET -2.2628 -0.552002 0.3989
                      CHANNELS 3 Zrotation Xrotation Yrotation
                      End Site
                      {
                        OFFSET -1.6102 -0.4807 0.2612
                      }
                    }
                  }
                }
                JOINT RightHandMiddle1
                {
                  OFFSET -8.9937 0.894989 0.2143
                  CHANNELS 3 Zrotation Xrotation Yrotation
                  JOINT RightHandMiddle2
                  {
                    OFFSET -4.0984 0.0113983 -0.0242
                    CHANNELS 3 Zrotation Xrotation Yrotation
                    JOINT RightHandMiddle3
                    {
                      OFFSET -2.2716 0.00691223 -0.0138001
                      CHANNELS 3 Zrotation Xrotation Yrotation
                      End Site
                      {
                        OFFSET -2.0404 -0.1441 0.0027
                      }
                    }
                  }
                }
                JOINT RightHandRing1
                {
                  OFFSET -8.5234 0.597198 -2.0164
                  CHANNELS 3 Zrotation Xrotation Yrotation
                  JOINT RightHandRing2
                  {
                    OFFSET -3.7188 -0.188309 -0.2328
                    CHANNELS 3 Zrotation Xrotation Yrotation
                    JOINT RightHandRing3
                    {
                      OFFSET -2.1191 -0.106598 -0.1332
                      CHANNELS 3 Zrotation Xrotation Yrotation
                      End Site
                      {
                        OFFSET -1.8737 -0.2304 -0.0886
                      }
                    }
                  }
                }
                JOINT RightHandPinky1
                {
                  OFFSET -7.9094 -0.601105 -3.4825
                  CHANNELS 3 Zrotation Xrotation Yrotation
                  JOINT RightHandPinky2
                  {
                    OFFSET -2.2874 -0.477005 -0.6314
                    CHANNELS 3 Zrotation Xrotation Yrotation
                    JOINT RightHandPinky3
                    {
                      OFFSET -1.6774 -0.349396 -0.4633
                      CHANNELS 3 Zrotation Xrotation Yrotation
                      End Site
                      {
                        OFFSET -1.4888 -0.4091 -0.3416
                      }
                    }
                  }
                }
                JOINT RightHandThumb1
                {
                  OFFSET -1.833 -1.38751 1.3896
                  CHANNELS 3 Zrotation Xrotation Yrotation
                  JOINT RightHandThumb2
                  {
                    OFFSET -3.41299 -1.12099 2.5732
                    CHANNELS 3 Zrotation Xrotation Yrotation
                    JOINT RightHandThumb3
                    {
                      OFFSET -2.24741 -0.804108 1.6192
                      CHANNELS 3 Zrotation Xrotation Yrotation
                      End Site
                      {
                        OFFSET -1.6527 -0.5689 1.1317
                      }
                    }
                  }
                }
              }
            }
          }
        }
      }
    }
  }
  JOINT RightUpLeg
  {
    OFFSET -9.1966 3.8861 -0.7581
    CHANNELS 3 Zrotation Xrotation Yrotation
    JOINT RightLeg
    {
      OFFSET -0.7359 -41.0265 0
      CHANNELS 3 Zrotation Xrotation Yrotation
      JOINT RightFoot
      {
        OFFSET 0 -40.2855 0
        CHANNELS 3 Zrotation Xrotation Yrotation
        JOINT RightToeBase
        {
          OFFSET 0 -5.6122 11.7359
          CHANNELS 3 Zrotation Xrotation Yrotation
          End Site
          {
            OFFSET 0 0 7.8731
          }
        }
      }
    }
  }
  JOINT LeftUpLeg
  {
    OFFSET 9.1965 3.8864 -0.7581
    CHANNELS 3 Zrotation Xrotation Yrotation
    JOINT LeftLeg
    {
      OFFSET 0.7359 -41.0268 0
      CHANNELS 3 Zrotation Xrotation Yrotation
      JOINT LeftFoot
      {
        OFFSET 0 -40.2855 0
        CHANNELS 3 Zrotation Xrotation Yrotation
        JOINT LeftToeBase
        {
          OFFSET 0 -5.6122 11.7359
          CHANNELS 3 Zrotation Xrotation Yrotation
          End Site
          {
            OFFSET 0 0 7.8731
          }
        }
      }
    }
  }
}
MOTION
Frames:	4
Frame Time:	0.0333333
-0.0608393 1.89214 6.2993 -180 -89.9981 -180 -0.11812 9.36434 -0.11863 -0.220801 18.7289 -0.221929 -0.220801 18.7289 -0.221929 -1.31536e-006 -13.352 -9.00642e-007 1.03783e-007 -8.12677 6.53371e-008 -14.6503 -5.63469 5.54498 -78.7583 -3.33818 -20.9992 4.72764 45.7775 -52.793 -45.0248 13.2908 26.7176 2.12937e-006 5.32366e-007 -1.12916e-006 -1.43831e-006 7.85892e-006 -1.07024e-006 1.15026e-006 -5.98744e-009 -3.0758e-006 2.12937e-006 5.32366e-007 -1.12916e-006 -0.0146228 -8.43763e-005 2.96652e-006 1.41606e-006 -7.88287e-007 -5.25873e-007 2.12937e-006 5.32366e-007 -1.12916e-006 -0.0187669 -0.00117265 5.44225e-005 1.41605e-006 -7.88269e-007 -5.25915e-007 2.12937e-006 5.32366e-007 -1.12916e-006 -0.0122651 -0.00324531 0.000669191 1.41604e-006 -7.88309e-007 -5.25895e-007 2.12937e-006 5.32366e-007 -1.12916e-006 -1.43831e-006 7.85892e-006 -1.07024e-006 1.15026e-006 -5.98744e-009 -3.0758e-006 -0.607421 0.433263 -8.61064 77.1126 0.634018 -30.2949 -33.0795 8.32123 77.4736 7.08676 23.5989 -0.220558 1.16593e-006 -1.04674e-006 -4.64354e-006 2.46715e-006 -2.20206e-006 -1.04024e-005 1.16593e-006 -1.04674e-006 -4.64354e-006 1.16593e-006 -1.04674e-006 -4.64354e-006 0.015003 -8.98911e-005 -3.31978e-006 1.16516e-006 -1.04735e-006 -4.64341e-006 1.16593e-006 -1.04674e-006 -4.64354e-006 0.018996 -0.00119209 -6.71598e-005 1.42472e-006 -1.14228e-006 -1.3702e-006 1.16593e-006 -1.04674e-006 -4.64354e-006 0.0123107 -0.00325597 -0.000687719 1.16517e-006 -1.04707e-006 -4.64343e-006 1.16593e-006 -1.04674e-006 -4.64354e-006 2.46715e-006 -2.20206e-006 -1.04024e-005 1.16593e-006 -1.04674e-006 -4.64354e-006 -34.3541 -31.5377 -24.0555 -82.778 80.8525 79.4998 -8.38973 14.7711 -1.7929 -1.48238e-006 1.80837e-006 4.46124e-006 24.7089 3.01441 1.21979 -1.99526 6.6273 0.891388 9.3485 13.3726 0.575162 -3.18055e-015 0 3.18055e-015 
-0.0608393 1.89214 6.2993 -180 -89.9981 -180 -0.117798 9.31934 -0.118917 -0.220151 18.6389 -0.222629 -0.220151 18.6389 -0.222629 3.25181e-006 -13.1949 -2.32182e-007 -3.35979e-008 -8.21252 1.22825e-007 -14.9217 -5.41059 5.39198 -78.5992 -3.42296 -21.0949 4.75911 45.7389 -52.3979 -44.9215 13.5222 26.4237 -1.57478e-006 -2.83394e-006 -2.21526e-007 -5.50678e-007 4.01502e-006 1.00909e-006 -8.66292e-007 -3.22763e-006 -4.84046e-007 -1.57478e-006 -2.83394e-006 -2.21526e-007 -0.0146041 -8.38942e-005 2.79147e-006 -8.66165e-007 -3.22757e-006 -4.84456e-007 -1.57478e-006 -2.83394e-006 -2.21526e-007 -0.0187467 -0.00116934 5.78893e-005 -8.66136e-007 -3.22754e-006 -4.84565e-007 -1.57478e-006 -2.83394e-006 -2.21526e-007 -0.0122857 -0.00324714 0.000678465 -8.66218e-007 -3.22755e-006 -4.84373e-007 -1.57478e-006 -2.83394e-006 -2.21526e-007 -5.50678e-007 4.01502e-006 1.00909e-006 -8.66292e-007 -3.22763e-006 -4.84046e-007 -0.607421 0.433268 -8.61063 77.1126 0.634026 -30.2949 -33.0795 8.3212 77.4736 7.08676 23.5989 -0.220578 -3.60879e-006 7.80796e-007 8.65489e-007 -1.10388e-007 -1.18265e-007 -9.89368e-006 -3.60879e-006 7.80795e-007 8.65489e-007 -3.60879e-006 7.80796e-007 8.65489e-007 0.0149964 -9.07733e-005 -1.03713e-005 -3.60873e-006 7.80908e-007 8.6539e-007 -3.60879e-006 7.80796e-007 8.65489e-007 0.0190078 -0.00119342 -8.26979e-005 -3.60871e-006 7.80932e-007 8.65397e-007 -3.60879e-006 7.80796e-007 8.65489e-007 0.012264 -0.00324889 -0.000685604 -3.60872e-006 7.80854e-007 8.65505e-007 -3.60879e-006 7.80796e-007 8.65489e-007 -1.10388e-007 -1.18265e-007 -9.89368e-006 -3.60879e-006 7.80795e-007 8.65489e-007 -34.3541 -31.5377 -24.0555 -82.778 80.8525 79.4998 -8.38973 14.7711 -1.7929 -1.48238e-006 1.80837e-006 4.46124e-006 24.7089 3.01441 1.21979 -1.99526 6.6273 0.891388 9.3485 13.3726 0.575162 -3.18055e-015 0 3.18055e-015 
-0.0608393 1.89214 6.2993 -180 -89.9981 -180 -0.117476 9.27434 -0.119206 -0.219505 18.5489 -0.22333 -0.219505 18.5489 -0.223329 -1.47837e-006 -13.0374 4.25334e-007 1.24283e-007 -8.29831 -6.19924e-008 -15.1923 -5.1858 5.24009 -78.4401 -3.50802 -21.1904 4.7909 45.7004 -52.003 -44.8168 13.753 26.129 1.54995e-007 3.62215e-006 7.43625e-007 -1.54995e-007 -3.62215e-006 -7.43625e-007 1.54995e-007 3.62215e-006 7.43625e-007 1.54995e-007 3.62215e-006 7.43625e-007 -0.0146011 -9.29465e-005 -1.59457e-006 1.54876e-007 3.62206e-006 7.44086e-007 1.54995e-007 3.62215e-006 7.43625e-007 -0.0187523 -0.00117898 5.96213e-005 1.54851e-007 3.62202e-006 7.44216e-007 1.54995e-007 3.62215e-006 7.43625e-007 -0.0122575 -0.0032446 0.00067573 1.54937e-007 3.62205e-006 7.44013e-007 1.54995e-007 3.62215e-006 7.43625e-007 -1.54995e-007 -3.62215e-006 -7.43625e-007 1.54995e-007 3.62215e-006 7.43625e-007 -0.60742 0.433238 -8.61063 77.1126 0.634017 -30.2949 -33.0795 8.32122 77.4736 7.08676 23.5989 -0.220556 -2.07961e-007 1.17691e-007 -3.30247e-006 -1.39149e-015 1.86361e-015 -1.59028e-015 2.07961e-007 -1.17691e-007 3.30247e-006 -2.07961e-007 1.17691e-007 -3.30247e-006 0.0149768 -8.93163e-005 1.18242e-006 7.95139e-016 -3.03147e-015 -1.11319e-014 -2.07961e-007 1.17691e-007 -3.30247e-006 0.0190031 -0.00119143 -6.77768e-005 -3.97569e-016 5.01931e-015 4.77083e-015 -2.07961e-007 1.17691e-007 -3.30247e-006 0.0122491 -0.00324161 -0.000680514 -9.93923e-016 -4.07509e-015 -1.59028e-015 -2.07961e-007 1.17691e-007 -3.30247e-006 -1.39149e-015 1.86361e-015 -1.59028e-015 2.07961e-007 -1.17691e-007 3.30247e-006 -34.3541 -31.5377 -24.0555 -82.778 80.8525 79.4998 -8.38973 14.7711 -1.7929 -1.48238e-006 1.80837e-006 4.46124e-006 24.7089 3.01441 1.21979 -1.99526 6.6273 0.891388 9.3485 13.3726 0.575162 -3.18055e-015 0 3.18055e-015 
-0.0608393 1.89214 6.2993 -180 -89.9981 -180 -0.117156 9.22936 -0.119495 -0.218863 18.4589 -0.224031 -0.218863 18.4589 -0.224031 3.87866e-006 -12.8808 -1.07696e-006 1.11751e-007 -8.38405 1.10068e-007 -15.4623 -4.9603 5.08935 -78.2812 -3.59332 -21.2857 4.82306 45.6621 -51.6084 -44.7109 13.9834 25.8336 2.12813e-006 -1.17821e-006 -7.85316e-007 1.41875e-006 -7.85476e-007 -5.23544e-007 -0 -1.59028e-015 -0 2.12813e-006 -1.17821e-006 -7.85316e-007 -0.0145947 -9.09159e-005 2.09421e-006 -3.18055e-015 4.77083e-015 3.18055e-015 2.12813e-006 -1.17821e-006 -7.85316e-007 -0.0187575 -0.00117669 5.66837e-005 -9.54166e-015 -7.95139e-015 3.18055e-015 2.12813e-006 -1.17821e-006 -7.85316e-007 -0.0122556 -0.00324401 0.000679695 -3.18055e-015 -1.11319e-014 3.18055e-015 2.12813e-006 -1.17821e-006 -7.85316e-007 1.41875e-006 -7.85476e-007 -5.23544e-007 -0 -1.59028e-015 -0 -0.60742 0.433246 -8.61063 77.1126 0.634039 -30.2949 -33.0795 8.3212 77.4736 7.08676 23.5989 -0.220578 2.32178e-006 2.50882e-007 -6.08949e-007 4.64356e-006 5.01764e-007 -1.2179e-006 4.64356e-006 5.01764e-007 -1.2179e-006 2.32178e-006 2.50882e-007 -6.08949e-007 0.0150033 -9.11716e-005 -8.70894e-006 4.64353e-006 5.01605e-007 -1.21797e-006 2.32178e-006 2.50882e-007 -6.08949e-007 0.0189938 -0.00118995 -5.60215e-005 4.64352e-006 5.01566e-007 -1.21803e-006 2.32178e-006 2.50882e-007 -6.08949e-007 0.0122697 -0.00324569 -0.000673778 4.6435e-006 5.01665e-007 -1.21808e-006 2.32178e-006 2.50882e-007 -6.08949e-007 4.64356e-006 5.01764e-007 -1.2179e-006 4.64356e-006 5.01764e-007 -1.2179e-006 -34.3541 -31.5377 -24.0555 -82.778 80.8525 79.4998 -8.38973 14.7711 -1.7929 -1.48238e-006 1.80837e-006 4.46124e-006 24.7089 3.01441 1.21979 -1.99526 6.6273 0.891388 9.3485 13.3726 0.575162 -3.18055e-015 0 3.18055e-015 
